<svg xmlns="http://www.w3.org/2000/svg" width="248" height="61.253" viewBox="0 0 248 61.253">
  <g id="Group_11" data-name="Group 11" transform="translate(-272 -173.855)">
    <g id="Group_10" data-name="Group 10" transform="translate(16.869 -154.566)">
      <path id="Path_9" data-name="Path 9" d="M280.847,334.946c2.952,0,5.908.085,8.856-.031a3.645,3.645,0,0,1,3.8,2.232c.985,1.937,2.172,3.773,3.27,5.653a5.243,5.243,0,0,0,.437.767c.995,1.175,7.363.788,8.176-.529,1.02-1.654,1.952-3.361,2.937-5.034,1.829-3.109,5.22-3.942,8.01-1.98a5.35,5.35,0,0,1,.966,7.789c-1.547,1.82-3.684,2.052-5.836,1.847a3.031,3.031,0,0,0-3.554,2.119c-.143.373-.6.739-.321,1.112.315.429.879.246,1.322.122a17.621,17.621,0,0,1,10.934.658,18.726,18.726,0,0,1,.215,35.068,18.94,18.94,0,0,1-24.8-11.593A17.985,17.985,0,0,1,296.7,358.12c1.577-2.763,3.142-5.534,4.771-8.265.62-1.038.348-1.308-.76-1.266-1.237.047-2.484-.066-3.718.027a3.116,3.116,0,0,1-3.161-1.8c-1.139-2-2.323-3.964-3.429-5.977a2.422,2.422,0,0,0-2.426-1.364c-5.2.047-10.392.02-15.589.02-.119,0-.237-.006-.354,0-.634.05-1.489-.063-1.524.807-.031.794.772.973,1.421,1.024a21.26,21.26,0,0,1,6.442,1.778,25.792,25.792,0,0,1,11.183,8.928c1.078,1.493.991,2.764-.122,3.584-1.143.843-2.326.581-3.457-.912a22.752,22.752,0,0,0-15.412-9.091c-3.148-.464-5-2.719-4.813-5.551.2-3.018,2.454-5.07,5.7-5.109C274.587,334.916,277.716,334.946,280.847,334.946Zm17.991,32.313a14.385,14.385,0,0,0,28.769-.042,14.385,14.385,0,0,0-28.769.042Zm15.227-26.974a.724.724,0,0,0-.85-.714,1.264,1.264,0,0,0-1.192,1.111c-.169.672.439.554.808.547C313.466,341.217,313.98,340.992,314.066,340.286Z" transform="translate(6.008 3.674)" fill="#fff"/>
      <path id="Path_10" data-name="Path 10" d="M282.631,361.3c2.42,0,4.843-.044,7.263.013,2.484.058,3.092.67,2.92,3.095-.509,7.133-6.2,14.178-13.9,16.065a18.838,18.838,0,0,1-23.334-14.284c-2.573-10.829,6.248-22.3,17.393-22.613,8.215-.233,15.077,3.914,18.344,11.087.772,1.695.459,3-.872,3.646-1.187.576-2.324-.006-3.165-1.709-2.7-5.474-7.126-8.437-13.2-8.541a14.244,14.244,0,1,0,13.489,19.2c.443-1.167.321-1.591-1.015-1.568-3.3.058-6.613.019-9.919.039a7.405,7.405,0,0,0-1.392.2c-.476.1-.944.262-.907.88s.523.741,1.009.76c1.062.041,2.132-.028,3.186.072,1.425.135,2.583.756,2.487,2.4s-1.237,2.124-2.732,2.075c-1.121-.036-2.244.014-3.364-.022a5.4,5.4,0,0,1-5.349-5.079,5.241,5.241,0,0,1,4.746-5.592,41.106,41.106,0,0,1,4.241-.121C279.914,361.284,281.273,361.3,282.631,361.3Z" transform="translate(0 8.575)" fill="#fff"/>
      <path id="Path_11" data-name="Path 11" d="M291.14,328.421a6.47,6.47,0,0,1,6.641,6.517,6.644,6.644,0,0,1-6.563,6.66,6.755,6.755,0,0,1-6.707-6.57A6.654,6.654,0,0,1,291.14,328.421Zm2.155,6.6c-.158-1.323-.846-2.107-2.174-2.071a1.871,1.871,0,0,0-2.019,1.966,1.941,1.941,0,0,0,2.05,2.141C292.478,337.1,293.14,336.262,293.3,335.016Z" transform="translate(16.637)" fill="#fff"/>
      <path id="Path_12" data-name="Path 12" d="M282.061,363.377c-1.585,0-2.591-.98-2.525-2.224a2.182,2.182,0,0,1,2.295-2.191,2.249,2.249,0,0,1,2.265,2.233A2.225,2.225,0,0,1,282.061,363.377Z" transform="translate(13.818 17.291)" fill="#fff"/>
      <g id="Group_9" data-name="Group 9" transform="translate(348.935 341.363)">
        <path id="Path_13" data-name="Path 13" d="M326.362,336.684H334.5q.435,0,.434.6a3.46,3.46,0,0,1-.108.76l-10.2,37.978q-.352,1.358-1,1.356h-8.166c-.29,0-.434-.2-.434-.6a3.41,3.41,0,0,1,.11-.761l10.2-37.978Q325.683,336.685,326.362,336.684Z" transform="translate(-315.022 -336.684)" fill="#fff"/>
        <path id="Path_14" data-name="Path 14" d="M347.774,359.282l5.7-21.241q.352-1.356,1.031-1.356h8.138q.435,0,.435.6a3.48,3.48,0,0,1-.11.76l-10.2,37.978q-.352,1.358-1,1.356H339.526q-.679,0-.813-2.033l-.6-20.563-5.7,21.24q-.352,1.358-1,1.356H323.25c-.29,0-.434-.2-.434-.6a3.41,3.41,0,0,1,.11-.761l10.2-37.978q.355-1.356,1.032-1.356H346.39q.653,0,.788,2.035Z" transform="translate(-310.609 -336.684)" fill="#fff"/>
        <path id="Path_15" data-name="Path 15" d="M372.763,355.946a5.267,5.267,0,0,1,2.035,4.285,8.517,8.517,0,0,1-.326,2.224l-1.438,5.425q-2.549,9.5-13.4,9.495h-15.6c-.29,0-.432-.2-.432-.6a3.393,3.393,0,0,1,.108-.761l10.2-37.978q.352-1.356,1.031-1.356h14.243q8.789,0,8.788,6.238a12.7,12.7,0,0,1-.489,3.258l-1.438,5.424A7.893,7.893,0,0,1,372.763,355.946Zm-17.551,12.586a.85.85,0,0,0-.055.271q0,.435.542.434h6.1a1.661,1.661,0,0,0,1.737-1.356l1.438-5.425a2.042,2.042,0,0,0,.081-.515c0-.559-.354-.841-1.059-.841h-6.1a.83.83,0,0,0-.868.68Zm4.367-16.278a.86.86,0,0,0-.053.273q0,.435.54.435h4.749a1.661,1.661,0,0,0,1.735-1.358l1.438-5.424a2,2,0,0,0,.083-.517q0-.841-1.059-.841h-4.747a.833.833,0,0,0-.869.678Z" transform="translate(-298.839 -336.684)" fill="#fff"/>
        <path id="Path_16" data-name="Path 16" d="M373.993,336.684h8.138c.288,0,.434.2.434.6a3.464,3.464,0,0,1-.108.76l-10.2,37.978q-.352,1.358-1,1.356h-8.166c-.29,0-.434-.2-.434-.6a3.406,3.406,0,0,1,.11-.761l10.2-37.978Q373.315,336.685,373.993,336.684Z" transform="translate(-288.051 -336.684)" fill="#fff"/>
        <path id="Path_17" data-name="Path 17" d="M384.066,361.1l-4.016,14.92q-.352,1.358-1.031,1.356h-8.138c-.29,0-.434-.2-.434-.6a3.41,3.41,0,0,1,.11-.761l10.2-37.978q.355-1.356,1.032-1.356h8.165q.435,0,.435.569a3.157,3.157,0,0,1-.136.788l-3.826,14.242a1.328,1.328,0,0,0-.027.244c0,.29.172.435.515.435h2.443l9.711-14.922q1.029-1.356,1.709-1.356h8.138c.2,0,.3.072.3.218a.271.271,0,0,1-.025.108,3.977,3.977,0,0,1-.625,1.031L398.307,353.8a5.321,5.321,0,0,1,3.5,5.371,12.761,12.761,0,0,1-.489,3.283l-3.634,13.564q-.352,1.332-1.031,1.356h-8.14c-.288,0-.434-.2-.434-.6a3.585,3.585,0,0,1,.108-.761l3.637-13.564a2.033,2.033,0,0,0,.08-.515c0-.559-.352-.841-1.057-.841Z" transform="translate(-283.638 -336.684)" fill="#fff"/>
        <path id="Path_18" data-name="Path 18" d="M399.448,377.375q-8.789,0-8.788-6.238a12.7,12.7,0,0,1,.489-3.256l8-29.84q.352-1.356,1.031-1.356h25.771q.435,0,.435.6a3.48,3.48,0,0,1-.11.76l-1.463,5.426q-.355,1.356-1.031,1.356H407.507a.833.833,0,0,0-.869.678l-1.817,6.782a.889.889,0,0,0-.053.272q0,.432.542.432h12.209q.432,0,.432.57a3.072,3.072,0,0,1-.135.786l-1.438,5.425c-.235.888-.58,1.33-1.031,1.33H403.138a.872.872,0,0,0-.868.706l-1.627,6.075a1.993,1.993,0,0,0-.081.515q0,.841,1.057.841h15.6q.435,0,.435.6a3.465,3.465,0,0,1-.11.76l-1.463,5.425q-.355,1.358-1.032,1.356Z" transform="translate(-272.192 -336.684)" fill="#fff"/>
      </g>
    </g>
  </g>
</svg>
